{
    "asset" : {
        "generator" : "Khronos glTF Blender I/O v1.8.19",
        "version" : "2.0"
    },
    "scene" : 0,
    "scenes" : [
        {
            "name" : "Scene",
            "nodes" : [
                0
            ]
        }
    ],
    "nodes" : [
        {
            "mesh" : 0,
            "name" : "Sphere",
            "scale" : [
                0.25,
                0.25,
                0.25
            ]
        }
    ],
    "materials" : [
        {
            "doubleSided" : true,
            "name" : "Blau",
            "pbrMetallicRoughness" : {
                "baseColorFactor" : [
                    0.025187000632286072,
                    0.034339673817157745,
                    0.3467038869857788,
                    1
                ],
                "metallicFactor" : 0,
                "roughnessFactor" : 0.5
            }
        }
    ],
    "meshes" : [
        {
            "name" : "Sphere.001",
            "primitives" : [
                {
                    "attributes" : {
                        "POSITION" : 0,
                        "NORMAL" : 1,
                        "TEXCOORD_0" : 2
                    },
                    "indices" : 3,
                    "material" : 0
                }
            ]
        }
    ],
    "accessors" : [
        {
            "bufferView" : 0,
            "componentType" : 5126,
            "count" : 2819,
            "max" : [
                0.2498479038476944,
                0.25,
                0.25000032782554626
            ],
            "min" : [
                -0.24984824657440186,
                -0.25,
                -0.2500006854534149
            ],
            "type" : "VEC3"
        },
        {
            "bufferView" : 1,
            "componentType" : 5126,
            "count" : 2819,
            "type" : "VEC3"
        },
        {
            "bufferView" : 2,
            "componentType" : 5126,
            "count" : 2819,
            "type" : "VEC2"
        },
        {
            "bufferView" : 3,
            "componentType" : 5123,
            "count" : 15660,
            "type" : "SCALAR"
        }
    ],
    "bufferViews" : [
        {
            "buffer" : 0,
            "byteLength" : 33828,
            "byteOffset" : 0
        },
        {
            "buffer" : 0,
            "byteLength" : 33828,
            "byteOffset" : 33828
        },
        {
            "buffer" : 0,
            "byteLength" : 22552,
            "byteOffset" : 67656
        },
        {
            "buffer" : 0,
            "byteLength" : 31320,
            "byteOffset" : 90208
        }
    ],
    "buffers" : [
        {
            "byteLength" : 121528,
            "uri" : "data:application/octet-stream;base64,"
        }
    ]
}
